<svg width="32" height="50" viewBox="0 0 32 50" fill="none" xmlns="http://www.w3.org/2000/svg">
<path fill-rule="evenodd" clip-rule="evenodd" d="M15.0736 1.47428L0.776388 24.2274C0.606709 24.3666 0.490726 24.556 0.44007 24.7626L0 25.463L16 34.7222L32 25.463L16.9264 1.47428C16.8823 1.36604 16.8197 1.26726 16.7426 1.18185L16 0L15.2574 1.18185C15.1803 1.26726 15.1177 1.36603 15.0736 1.47428ZM15 5.35051L4.17564 22.5768L15 17.4241V5.35051ZM15 19.6391L3.43911 25.1424L15 31.8328V19.6391ZM17 31.8328V19.6622L28.368 25.2541L17 31.8328ZM17 17.4333V5.35051L27.989 22.8387L17 17.4333ZM15.8834 37.4325L0 28.2407L16 50L32 28.2407L16.1166 37.4325C16.0784 37.4281 16.0394 37.4258 16 37.4258C15.9606 37.4258 15.9216 37.4281 15.8834 37.4325ZM15 39.232L7.27914 34.7639L15 45.264V39.232ZM17 45.264L24.7209 34.7639L17 39.232V45.264Z" fill="white"/>
</svg>
