<svg width="593" height="402" viewBox="0 0 593 402" fill="none" xmlns="http://www.w3.org/2000/svg">
<path d="M46.1616 101.923H188.198L252.114 165.921H366.926L405.394 125.626H500.085" stroke="#EEEEFF" stroke-width="2" stroke-linecap="round" stroke-linejoin="round"/>
<path d="M110.67 234.067H204.177L363.375 74.6644H581.756" stroke="#EEEEFF" stroke-width="2" stroke-linecap="round" stroke-linejoin="round"/>
<ellipse cx="222.523" cy="28.4436" rx="28.4072" ry="28.4436" fill="url(#paint0_linear_6271_529)"/>
<ellipse cx="94.6905" cy="101.923" rx="3.5509" ry="3.55545" fill="#EEEEFF"/>
<path d="M80.4871 100.738L94.6907 98.3676V105.479L80.4871 103.108V100.738Z" fill="url(#paint1_linear_6271_529)"/>
<path d="M177.545 112.589L214.238 149.329" stroke="#EEEEFF" stroke-width="2" stroke-linecap="round" stroke-linejoin="round"/>
<path d="M217.788 152.884L227.257 162.366" stroke="#EEEEFF" stroke-width="2" stroke-linecap="round" stroke-linejoin="round"/>
<path d="M401.251 235.845L437.944 272.585" stroke="#EEEEFF" stroke-width="2" stroke-linecap="round" stroke-linejoin="round"/>
<path d="M441.495 276.14L450.964 285.621" stroke="#EEEEFF" stroke-width="2" stroke-linecap="round" stroke-linejoin="round"/>
<path d="M415.455 140.939H520.207" stroke="#EEEEFF" stroke-width="2" stroke-linecap="round" stroke-linejoin="round"/>
<path d="M525.533 140.939H538.924" stroke="#EEEEFF" stroke-width="2" stroke-linecap="round" stroke-linejoin="round"/>
<path d="M544.471 140.939H572.287" stroke="#EEEEFF" stroke-width="2" stroke-linecap="round" stroke-linejoin="round"/>
<path d="M79.8953 218.364H140.261" stroke="#EEEEFF" stroke-width="2" stroke-linecap="round" stroke-linejoin="round"/>
<path d="M145.587 218.364H158.978" stroke="#EEEEFF" stroke-width="2" stroke-linecap="round" stroke-linejoin="round"/>
<path d="M164.525 218.364H192.34" stroke="#EEEEFF" stroke-width="2" stroke-linecap="round" stroke-linejoin="round"/>
<ellipse cx="456.882" cy="125.626" rx="3.5509" ry="3.55545" fill="#EEEEFF"/>
<path d="M442.679 124.441L456.882 122.071V129.182L442.679 126.811V124.441Z" fill="url(#paint2_linear_6271_529)"/>
<ellipse cx="543.287" cy="74.6646" rx="3.5509" ry="3.55545" fill="#EEEEFF"/>
<path d="M529.084 73.4794L543.287 71.1091V78.22L529.084 75.8497V73.4794Z" fill="url(#paint3_linear_6271_529)"/>
<path d="M62.7325 304.584H196.483L285.847 215.105H403.027L452.148 264.289H550.981" stroke="#EEEEFF" stroke-width="2" stroke-linecap="round" stroke-linejoin="round"/>
<ellipse cx="169.26" cy="304.584" rx="3.5509" ry="3.55545" fill="#EEEEFF"/>
<path d="M155.056 303.399L169.26 301.028V308.139L155.056 305.769V303.399Z" fill="url(#paint4_linear_6271_529)"/>
<path d="M200.734 139.434C200.734 139.434 180.837 181.006 200.259 247.479C200.404 247.976 200.579 248.462 200.734 248.948C215.466 293.095 371.639 281.006 398.675 266.001C398.675 266.001 428.243 199.63 401.248 137.118C401.258 137.118 291.729 88.4207 200.734 139.434Z" fill="#315EFB"/>
<g style="mix-blend-mode:soft-light">
<mask id="mask0_6271_529" style="mask-type:alpha" maskUnits="userSpaceOnUse" x="191" y="116" width="222" height="164">
<path d="M200.734 139.434C200.734 139.434 180.837 181.006 200.259 247.479C200.404 247.976 200.579 248.462 200.734 248.948C215.466 293.095 371.639 281.006 398.675 266.001C398.675 266.001 428.243 199.63 401.248 137.118C401.258 137.118 291.729 88.4207 200.734 139.434Z" fill="#315EFB"/>
</mask>
<g mask="url(#mask0_6271_529)">
<g style="mix-blend-mode:soft-light">
<path d="M193 160.5C193 160.5 187.025 194.175 200.116 250.797C200.116 250.797 205.67 280.613 288.992 285.423C362.258 289.656 399.871 269.205 399.871 269.205C399.871 269.205 414.364 244.28 416 232.12C416 232.12 325.876 268.419 237 238.5C186.5 221.5 193 160.5 193 160.5Z" fill="url(#paint5_linear_6271_529)"/>
</g>
</g>
</g>
<path d="M410.056 225.41L411 221.012C411 221.012 392.427 224.567 375.775 223.232C359.123 221.896 354.513 216.203 352.003 209C352.003 209 351.28 225.05 374.22 227.311C397.459 229.613 410.056 225.41 410.056 225.41Z" fill="#1642FA"/>
<path d="M414.218 221.223C414.218 221.223 419.383 206.745 415.654 184.439C415.654 184.439 401.387 176.383 375.043 178.741C348.699 181.099 346.498 199.909 351.509 213.849C357.056 229.237 392.037 226.693 414.218 221.223Z" fill="#356BFF"/>
<circle cx="370" cy="203" r="14" fill="white"/>
<path d="M382.667 203C382.667 209.996 376.996 215.667 370 215.667C363.004 215.667 357.333 209.996 357.333 203C357.333 203 364 205.667 372.667 200.334C382.667 194.18 382.667 203 382.667 203Z" fill="url(#paint6_linear_6271_529)"/>
<path fill-rule="evenodd" clip-rule="evenodd" d="M365.655 200.909C367.095 200.909 368.262 199.734 368.262 198.283C368.262 196.833 367.095 195.657 365.655 195.657C364.216 195.657 363.049 196.833 363.049 198.283C363.049 199.734 364.216 200.909 365.655 200.909Z" fill="#315EFB"/>
<path fill-rule="evenodd" clip-rule="evenodd" d="M374.344 209.663C375.784 209.663 376.951 208.488 376.951 207.037C376.951 205.587 375.784 204.411 374.344 204.411C372.905 204.411 371.738 205.587 371.738 207.037C371.738 208.488 372.905 209.663 374.344 209.663Z" fill="#315EFB"/>
<path fill-rule="evenodd" clip-rule="evenodd" d="M374.278 196.533C372.801 196.533 371.605 197.739 371.605 199.226C371.605 200.714 372.801 201.92 374.278 201.92C375.754 201.92 376.951 200.714 376.951 199.226C376.951 197.739 375.754 196.533 374.278 196.533Z" fill="#315EFB"/>
<path fill-rule="evenodd" clip-rule="evenodd" d="M365.723 205.152C364.247 205.152 363.05 206.358 363.05 207.845C363.05 209.333 364.247 210.539 365.723 210.539C367.2 210.539 368.397 209.333 368.397 207.845C368.397 206.358 367.2 205.152 365.723 205.152Z" fill="#315EFB"/>
<path d="M223.988 44.2797C231.434 14.4378 289.733 2.53658 317.952 0.316202C364.49 -3.34572 360.944 25.6285 317.952 44.2797C303.944 50.3563 294.904 77.1412 265.651 84.6905C254.32 87.6149 214.68 81.582 223.988 44.2797Z" fill="url(#paint7_linear_6271_529)"/>
<circle cx="3.55318" cy="3.55318" r="3.55318" transform="matrix(0.706653 0.70756 -0.706653 0.70756 430.377 237.462)" fill="#EEEEFF"/>
<path d="M421.17 231.595L432.888 239.976L427.866 245.004L419.496 233.272L421.17 231.595Z" fill="url(#paint8_linear_6271_529)"/>
<path d="M1.92255 247.815C-4.97406 231.767 8.33286 225.247 15.8484 223.994C54.9732 223.994 83.4884 247.815 103.382 252.83C123.276 257.845 150.465 256.591 186.274 276.024C222.084 295.457 229.378 313.009 248.609 331.188C267.84 349.367 283.755 338.084 310.281 339.964C336.806 341.845 346.09 360.651 310.281 375.069C274.471 389.487 257.23 375.696 229.378 375.069C201.526 374.442 165.054 343.726 150.465 323.039C135.876 302.352 113.329 284.8 83.4884 281.666C53.6473 278.531 10.5433 267.874 1.92255 247.815Z" fill="url(#paint9_linear_6271_529)"/>
<path d="M328.576 329.328L400.434 379.267L284.269 402L328.576 329.328Z" fill="url(#paint10_linear_6271_529)"/>
<path fill-rule="evenodd" clip-rule="evenodd" d="M522.557 309.982C523.522 304.417 528.832 300.614 534.402 301.565C539.972 302.516 543.695 307.86 542.729 313.425C541.764 318.991 536.455 322.793 530.884 321.842C525.314 320.892 521.592 315.547 522.557 309.982ZM531.537 310.665L526.664 309.833L525.78 311.58L530.653 312.412L531.537 310.665ZM538.588 308.7C539.005 308.771 539.523 309.059 539.7 309.629C539.877 310.198 539.756 310.455 539.44 311.125L539.44 311.126C539.125 311.797 538.128 313.8 537.74 314.505C537.352 315.209 536.766 315.756 536.093 316.011L536.033 316.034C535.404 316.273 535.14 316.374 534.312 316.232L525.571 314.74L526.534 312.84L534.755 314.243L536.679 310.439L528.524 309.047L529.488 307.147L538.588 308.7Z" fill="#315EFB"/>
<path fill-rule="evenodd" clip-rule="evenodd" d="M462.568 335.462C467.642 327.614 478.173 325.298 486.03 330.383C493.887 335.468 496.094 346.028 491.02 353.876C485.946 361.724 475.415 364.04 467.558 358.955C459.701 353.87 457.494 343.31 462.568 335.462ZM468.707 344.204L470.376 344.547L466.376 348.325L478.4 356.107L481.381 353.286L474.17 348.618L477.073 345.865L478.752 346.191L481.055 344.023L479.392 343.706L484.567 338.813L479.777 335.714L472.723 342.361L471.023 342.032L468.708 344.204L468.707 344.204Z" fill="#315EFB"/>
<path d="M488.502 202.339C489.811 191.477 496.249 187.657 499.304 187.106C512.725 191.08 528.437 179.82 540.221 183.132C552.005 186.443 561.17 202.339 566.735 207.638C572.299 212.936 600.777 218.235 590.957 234.793C581.137 251.351 566.08 234.793 542.839 230.157C519.599 225.52 521.235 240.423 510.761 245.059C500.286 249.695 492.103 242.41 488.502 234.793C484.901 227.176 486.865 215.917 488.502 202.339Z" fill="url(#paint11_linear_6271_529)"/>
<path fill-rule="evenodd" clip-rule="evenodd" d="M158.527 378.377C148.112 367.644 148.359 350.487 159.079 340.059C169.799 329.63 186.934 329.878 197.349 340.611C207.764 351.345 207.517 368.501 196.797 378.93C186.076 389.359 168.942 389.111 158.527 378.377Z" fill="white"/>
<path fill-rule="evenodd" clip-rule="evenodd" d="M156.163 378.375C145.75 367.645 145.991 350.485 156.709 340.057C167.428 329.629 184.566 329.883 194.979 340.613C205.392 351.344 205.151 368.504 194.432 378.932C183.714 389.36 166.576 389.106 156.163 378.375ZM188.755 373.086L168.866 369.579L182.129 366.258L182.13 366.259L185.832 353.074L188.755 373.086ZM162.382 345.907L184.293 351.5L180.514 364.593L167.333 367.999L162.382 345.907Z" fill="#315EFB"/>
<path fill-rule="evenodd" clip-rule="evenodd" d="M498.668 168.504C504.095 161.843 513.891 160.846 520.544 166.281C527.198 171.715 528.191 181.524 522.765 188.185C517.338 194.845 507.543 195.842 500.889 190.408C494.235 184.973 493.242 175.164 498.668 168.504Z" fill="white"/>
<path fill-rule="evenodd" clip-rule="evenodd" d="M496.312 167.325C501.731 160.677 511.54 159.657 518.188 165.088C524.836 170.519 525.806 180.343 520.386 186.992C514.967 193.64 505.158 194.66 498.51 189.229C491.862 183.799 490.893 173.974 496.312 167.325ZM501.472 185.595L502.164 173.996L504.929 181.354L504.929 181.355L512.688 182.592L501.472 185.595ZM515.224 168.72L513.477 181.612L505.766 180.324L502.958 173.019L515.224 168.72Z" fill="#315EFB"/>
<path d="M469.31 171.847H478.779" stroke="#28BC00" stroke-width="2" stroke-linecap="round" stroke-linejoin="round"/>
<path d="M484.106 181.328H459.249" stroke="#28BC00" stroke-width="2" stroke-linecap="round" stroke-linejoin="round"/>
<path d="M122.506 170.662H138.485" stroke="#28BC00" stroke-width="2" stroke-linecap="round" stroke-linejoin="round"/>
<path d="M151.505 180.143H126.649" stroke="#28BC00" stroke-width="2" stroke-linecap="round" stroke-linejoin="round"/>
<path fill-rule="evenodd" clip-rule="evenodd" d="M106.78 66.2935C102.743 59.4116 105.012 50.4774 111.904 46.4331C118.797 42.3889 127.702 44.7661 131.739 51.6479C135.777 58.5298 133.508 67.4641 126.615 71.5083C119.723 75.5526 110.818 73.1753 106.78 66.2935ZM125.328 59.5637L120.344 62.4893C120.49 61.7869 120.614 61.0801 120.716 60.3697C120.995 58.5819 121.262 56.7922 121.519 55.0009C121.54 54.8546 121.572 54.7025 121.605 54.5483C121.697 54.1125 121.791 53.6646 121.66 53.31C121.429 52.6651 121.052 52.069 120.664 51.4558C120.504 51.2053 120.348 50.9521 120.196 50.6964L117.103 52.5118L115.827 50.3366L113.349 51.7916L114.657 54.0219L111.819 55.6877L113.381 58.3521L118.161 55.5462C118.104 55.8853 118.046 56.203 117.991 56.5112C117.92 56.9034 117.852 57.28 117.789 57.6658C117.51 59.4537 117.243 61.2434 116.987 63.0348C116.97 63.194 116.938 63.3629 116.905 63.5336C116.826 63.946 116.745 64.3711 116.871 64.7108C117.103 65.3569 117.481 65.9544 117.864 66.5593C118.017 66.8028 118.172 67.0471 118.318 67.2966L121.386 65.496L122.678 67.6993L125.259 66.1844C125.017 65.8263 124.777 65.4662 124.54 65.1044C124.306 64.7493 124.072 64.3941 123.823 64.0288L126.89 62.2287L125.327 59.5639L125.328 59.5637Z" fill="#315EFB"/>
<path d="M133.159 78.22L139.077 84.1457" stroke="#28BC00" stroke-width="2" stroke-linecap="round" stroke-linejoin="round"/>
<path d="M430.842 62.2204C430.842 44.2436 445.415 29.6288 463.392 29.6288C481.369 29.6288 495.942 44.2436 495.942 62.2204C495.942 80.1973 481.369 94.8121 463.392 94.8121C445.415 94.8121 430.842 80.1973 430.842 62.2204Z" fill="white"/>
<path fill-rule="evenodd" clip-rule="evenodd" d="M462.209 33.1842C445.539 33.1842 432.026 46.7362 432.026 63.4056C432.026 80.075 445.539 93.6269 462.209 93.6269C478.878 93.6269 492.391 80.075 492.391 63.4056C492.391 46.7362 478.878 33.1842 462.209 33.1842ZM469.234 52.158C473.351 53.5779 476.362 55.7065 475.77 59.6659C475.342 62.5644 473.737 63.9676 471.607 64.4595C474.532 65.9845 476.021 68.3232 474.603 72.3775C472.843 77.4128 468.662 77.8378 463.102 76.7842L461.752 82.199L458.492 81.3853L459.823 76.0431C458.978 75.833 458.115 75.6098 457.225 75.368L455.889 80.7353L452.632 79.9217L453.981 74.4967C453.677 74.4187 453.371 74.3388 453.062 74.2583L453.062 74.2582L453.062 74.2581L453.061 74.258C452.598 74.1371 452.13 74.0149 451.656 73.896L447.413 72.8368L449.032 69.0996C449.032 69.0996 451.434 69.7394 451.402 69.692C452.325 69.9207 452.735 69.3182 452.896 68.9164L455.029 60.3568C455.108 60.376 455.186 60.3956 455.262 60.4145L455.262 60.4147L455.263 60.4148L455.373 60.4424C455.243 60.3903 455.125 60.3568 455.034 60.3336L456.555 54.2233C456.595 53.5296 456.357 52.6546 455.036 52.3245C455.087 52.2901 452.668 51.7349 452.668 51.7349L453.535 48.2478L458.032 49.3721L458.028 49.3888C458.704 49.5571 459.401 49.7171 460.11 49.8789L461.447 44.5171L464.706 45.3308L463.396 50.5874C464.271 50.7874 465.151 50.9891 466.009 51.203L467.309 45.9808L470.569 46.7944L469.234 52.158ZM468.32 70.1263C467.396 73.8459 461.581 72.3081 458.92 71.6045L458.92 71.6045C458.681 71.5412 458.467 71.4847 458.285 71.4393L460.075 64.2522C460.297 64.3077 460.569 64.3687 460.876 64.4378C463.628 65.056 469.267 66.3231 468.32 70.1263ZM461.429 61.1025C463.647 61.6952 468.486 62.9881 469.329 59.6074C470.189 56.1494 465.487 55.107 463.19 54.598C462.932 54.5407 462.704 54.4902 462.518 54.4437L460.894 60.9622C461.048 61.0005 461.227 61.0486 461.429 61.1025Z" fill="#315EFB"/>
<path fill-rule="evenodd" clip-rule="evenodd" d="M83.6549 161.553C76.0221 168.304 75.3047 179.977 82.0427 187.615C88.7806 195.252 100.438 195.98 108.071 189.229C115.704 182.478 116.421 170.805 109.683 163.167C102.945 155.53 91.2877 154.802 83.6549 161.553ZM94.536 167.396C96.9945 166.379 99.2329 166.134 100.561 168.187C101.536 169.687 101.368 170.979 100.591 172.068C102.547 171.581 104.173 172.049 105.162 174.48C106.39 177.498 104.647 179.386 101.676 181.155L103.245 184.181L101.423 185.129L99.8753 182.144C99.4034 182.39 98.9178 182.637 98.4128 182.887L99.969 185.886L98.149 186.832L96.5755 183.802C96.4047 183.889 96.2322 183.977 96.0585 184.065L96.0582 184.065C95.7973 184.197 95.5335 184.331 95.2686 184.468L92.8979 185.701L92.1294 183.335C92.1294 183.335 93.4879 182.655 93.4539 182.646C93.969 182.377 93.9131 181.935 93.8248 181.686L91.3436 176.903C91.388 176.879 91.4318 176.857 91.474 176.835L91.5359 176.803C91.4553 176.831 91.3878 176.864 91.3367 176.89L89.5651 173.476C89.3031 173.142 88.8404 172.838 88.1024 173.222C88.1119 173.186 86.7799 173.911 86.7799 173.911L85.7685 171.963L88.2816 170.657L88.2866 170.666C88.6642 170.469 89.0477 170.261 89.4379 170.047L87.884 167.051L89.7048 166.104L91.2286 169.041C91.7099 168.778 92.1945 168.514 92.6734 168.265L91.1592 165.347L92.9809 164.399L94.536 167.396ZM101.375 175.995C102.456 178.073 99.1728 179.723 97.6706 180.477C97.5354 180.545 97.4147 180.606 97.3129 180.659L95.2273 176.642C95.3514 176.577 95.5003 176.495 95.669 176.402C97.1784 175.572 100.272 173.869 101.375 175.995ZM94.5773 174.652C95.8322 174.026 98.5694 172.66 97.5886 170.77C96.5848 168.837 94.0111 170.263 92.7541 170.96C92.6127 171.038 92.488 171.107 92.384 171.161L94.2758 174.805C94.3615 174.76 94.4633 174.709 94.5773 174.652Z" fill="#315EFB"/>
<path d="M197.667 328.879L216.013 310.51" stroke="#28BC00" stroke-width="2" stroke-linecap="round" stroke-linejoin="round"/>
<path d="M209.503 330.657L234.951 305.176" stroke="#28BC00" stroke-width="2" stroke-linecap="round" stroke-linejoin="round"/>
<path d="M417.822 106.071L431.434 92.4418" stroke="#28BC00" stroke-width="2" stroke-linecap="round" stroke-linejoin="round"/>
<path d="M440.903 95.9973L418.414 118.515" stroke="#28BC00" stroke-width="2" stroke-linecap="round" stroke-linejoin="round"/>
<path d="M136.118 70.5165L149.138 83.5531" stroke="#28BC00" stroke-width="2" stroke-linecap="round" stroke-linejoin="round"/>
<path d="M450.964 311.695L459.249 319.991" stroke="#28BC00" stroke-width="2" stroke-linecap="round" stroke-linejoin="round"/>
<path d="M435.577 308.732L455.699 328.879" stroke="#28BC00" stroke-width="2" stroke-linecap="round" stroke-linejoin="round"/>
<path d="M519.023 291.547L523.758 296.288" stroke="#28BC00" stroke-width="2" stroke-linecap="round" stroke-linejoin="round"/>
<path d="M507.187 290.362L515.472 298.658" stroke="#28BC00" stroke-width="2" stroke-linecap="round" stroke-linejoin="round"/>
<defs>
<linearGradient id="paint0_linear_6271_529" x1="256.657" y1="79.5963" x2="194.009" y2="-8.22015" gradientUnits="userSpaceOnUse">
<stop stop-color="#28BC00"/>
<stop offset="1" stop-color="#28BC00" stop-opacity="0"/>
</linearGradient>
<linearGradient id="paint1_linear_6271_529" x1="88.1807" y1="101.923" x2="76.3443" y2="101.923" gradientUnits="userSpaceOnUse">
<stop stop-color="#EEEEFF"/>
<stop offset="1" stop-color="#EEEEFF" stop-opacity="0"/>
</linearGradient>
<linearGradient id="paint2_linear_6271_529" x1="450.372" y1="125.626" x2="438.536" y2="125.626" gradientUnits="userSpaceOnUse">
<stop stop-color="#EEEEFF"/>
<stop offset="1" stop-color="#EEEEFF" stop-opacity="0"/>
</linearGradient>
<linearGradient id="paint3_linear_6271_529" x1="536.777" y1="74.6645" x2="524.941" y2="74.6645" gradientUnits="userSpaceOnUse">
<stop stop-color="#EEEEFF"/>
<stop offset="1" stop-color="#EEEEFF" stop-opacity="0"/>
</linearGradient>
<linearGradient id="paint4_linear_6271_529" x1="162.75" y1="304.584" x2="150.913" y2="304.584" gradientUnits="userSpaceOnUse">
<stop stop-color="#EEEEFF"/>
<stop offset="1" stop-color="#EEEEFF" stop-opacity="0"/>
</linearGradient>
<linearGradient id="paint5_linear_6271_529" x1="425.323" y1="263.132" x2="129.425" y2="230.154" gradientUnits="userSpaceOnUse">
<stop/>
<stop offset="1" stop-opacity="0"/>
</linearGradient>
<linearGradient id="paint6_linear_6271_529" x1="383.716" y1="212.463" x2="350.255" y2="209.466" gradientUnits="userSpaceOnUse">
<stop stop-color="#DADAFF"/>
<stop offset="1" stop-color="#EEEEFF" stop-opacity="0"/>
</linearGradient>
<linearGradient id="paint7_linear_6271_529" x1="356.882" y1="69.7198" x2="186.679" y2="53.7938" gradientUnits="userSpaceOnUse">
<stop stop-color="#DADAFF"/>
<stop offset="1" stop-color="#EEEEFF" stop-opacity="0"/>
</linearGradient>
<linearGradient id="paint8_linear_6271_529" x1="425.773" y1="237.881" x2="417.393" y2="229.511" gradientUnits="userSpaceOnUse">
<stop stop-color="#EEEEFF"/>
<stop offset="1" stop-color="#EEEEFF" stop-opacity="0"/>
</linearGradient>
<linearGradient id="paint9_linear_6271_529" x1="347.615" y1="352.782" x2="-89.2879" y2="295.497" gradientUnits="userSpaceOnUse">
<stop stop-color="#DADAFF"/>
<stop offset="1" stop-color="#EEEEFF" stop-opacity="0"/>
</linearGradient>
<linearGradient id="paint10_linear_6271_529" x1="416.948" y1="401.585" x2="344.887" y2="285.267" gradientUnits="userSpaceOnUse">
<stop stop-color="#28BC00"/>
<stop offset="1" stop-color="#28BC00" stop-opacity="0"/>
</linearGradient>
<linearGradient id="paint11_linear_6271_529" x1="597.414" y1="234.803" x2="457.071" y2="220.339" gradientUnits="userSpaceOnUse">
<stop stop-color="#DADAFF"/>
<stop offset="1" stop-color="#EEEEFF" stop-opacity="0"/>
</linearGradient>
</defs>
</svg>
