<svg width="16" height="18" viewBox="0 0 16 18" fill="none" xmlns="http://www.w3.org/2000/svg">
<path fill-rule="evenodd" clip-rule="evenodd" d="M2.8512 6.64014C4.42595 6.64014 5.70253 5.35072 5.70253 3.76013C5.70253 2.16955 4.42595 0.880127 2.8512 0.880127C1.27646 0.880127 -0.00012207 2.16955 -0.00012207 3.76013C-0.00012207 5.35072 1.27646 6.64014 2.8512 6.64014Z" fill="#315EFB"/>
<path fill-rule="evenodd" clip-rule="evenodd" d="M12.3558 16.24C13.9306 16.24 15.2072 14.9506 15.2072 13.36C15.2072 11.7694 13.9306 10.48 12.3558 10.48C10.7811 10.48 9.50452 11.7694 9.50452 13.36C9.50452 14.9506 10.7811 16.24 12.3558 16.24Z" fill="#315EFB"/>
<path fill-rule="evenodd" clip-rule="evenodd" d="M12.283 1.84034C10.6678 1.84034 9.35852 3.16283 9.35852 4.79419C9.35852 6.42556 10.6678 7.74805 12.283 7.74805C13.8981 7.74805 15.2074 6.42556 15.2074 4.79419C15.2074 3.16283 13.8981 1.84034 12.283 1.84034Z" fill="#315EFB"/>
<path fill-rule="evenodd" clip-rule="evenodd" d="M2.9248 11.2925C1.30968 11.2925 0.000366688 12.615 0.000366688 14.2463C0.000366688 15.8777 1.30968 17.2002 2.9248 17.2002C4.53993 17.2002 5.84924 15.8777 5.84924 14.2463C5.84924 12.615 4.53993 11.2925 2.9248 11.2925Z" fill="#315EFB"/>
</svg>
