<svg width="51" height="44" viewBox="0 0 51 44" fill="none" xmlns="http://www.w3.org/2000/svg">
<path d="M38.0896 13.3975C37.1701 12.8721 35.9881 12.8721 34.9373 13.3975L27.5821 17.7318L22.591 20.49L15.3672 24.8244C14.4478 25.3497 13.2657 25.3497 12.2149 24.8244L6.56716 21.4094C5.64776 20.8841 4.99104 19.8333 4.99104 18.6512V12.0841C4.99104 11.0333 5.51642 9.98257 6.56716 9.32586L12.2149 6.04227C13.1343 5.5169 14.3164 5.5169 15.3672 6.04227L21.0149 9.4572C21.9343 9.98257 22.591 11.0333 22.591 12.2154V16.5497L27.5821 13.6602V9.19451C27.5821 8.14377 27.0567 7.09302 26.006 6.4363L15.4985 0.26317C14.5791 -0.262203 13.397 -0.262203 12.3463 0.26317L1.57612 6.56765C0.525373 7.09302 0 8.14377 0 9.19451V21.5408C0 22.5915 0.525373 23.6423 1.57612 24.299L12.2149 30.4721C13.1343 30.9975 14.3164 30.9975 15.3672 30.4721L22.591 26.2691L27.5821 23.3796L34.806 19.1766C35.7254 18.6512 36.9075 18.6512 37.9582 19.1766L43.606 22.4602C44.5254 22.9856 45.1821 24.0363 45.1821 25.2184V31.7856C45.1821 32.8363 44.6567 33.8871 43.606 34.5438L38.0896 37.8273C37.1701 38.3527 35.9881 38.3527 34.9373 37.8273L29.2896 34.5438C28.3701 34.0184 27.7134 32.9676 27.7134 31.7856V27.5826L22.7224 30.4721V34.8065C22.7224 35.8572 23.2478 36.9079 24.2985 37.5647L34.9373 43.7378C35.8567 44.2632 37.0388 44.2632 38.0896 43.7378L48.7284 37.5647C49.6478 37.0393 50.3045 35.9885 50.3045 34.8065V22.3288C50.3045 21.2781 49.7791 20.2273 48.7284 19.5706L38.0896 13.3975Z" fill="#8247E5"/>
</svg>
