<svg width="220" height="220" viewBox="0 0 220 220" fill="none" xmlns="http://www.w3.org/2000/svg">
<g clip-path="url(#clip0_108_89)">
<path d="M110 220C170.751 220 220 170.751 220 110C220 49.2487 170.751 0 110 0C49.2487 0 0 49.2487 0 110C0 170.751 49.2487 220 110 220Z" fill="#EBA809"/>
<path fill-rule="evenodd" clip-rule="evenodd" d="M110 185.625C68.2344 185.625 34.375 151.766 34.375 110C34.375 68.2344 68.2344 34.375 110 34.375C151.766 34.375 185.625 68.2344 185.625 110C185.625 151.766 151.766 185.625 110 185.625ZM103.208 46.3375C103.221 52.3531 103.221 58.3687 103.221 64.3844L112.227 64.3981C112.248 58.2312 112.262 52.0575 112.227 45.8906C109.223 45.9938 106.205 46.1381 103.208 46.3375ZM124.877 64.6731C132.797 65.7387 141.309 66.9488 147.613 72.2906C157.245 80.9325 156.001 99.0756 144.21 105.339C151.271 106.989 158.263 111.684 160.002 119.102C162.271 128.824 160.469 140.484 152.653 147.331C144.911 153.691 134.434 154.529 124.857 155.444C124.898 161.068 124.884 166.691 124.871 172.329C145.014 167.413 162.408 152.426 169.799 133.038C176.811 115.149 175.161 94.105 165.247 77.6256C156.496 62.7756 141.618 51.8444 124.912 47.6644C124.871 53.3363 124.871 59.0081 124.884 64.6731H124.877ZM64.7488 64.4325C73.48 64.845 82.2112 64.7625 90.9425 64.7488C90.9425 59.4413 90.9631 54.1338 90.915 48.8263C81.1387 51.9956 72.435 57.6812 64.7419 64.4325H64.7488ZM54.56 78.1138C44.2956 95.5763 43.1406 117.982 51.7 136.359C59.0906 152.831 73.755 165.646 90.9219 171.167C90.9563 165.873 90.9425 160.566 90.9425 155.272C82.1769 155.182 73.3906 155.506 64.6456 155.031C64.7419 150.15 65.8831 145.379 67.5538 140.793C71.8438 140.704 76.3194 141.453 80.465 140.057C82.885 138.022 82.1975 134.661 82.3213 131.876C82.1975 115.967 82.39 100.052 82.2388 84.1431C82.3969 81.5788 80.7881 78.8081 78.1138 78.2994C73.7138 77.4263 69.1969 77.77 64.7488 77.7425C64.2263 74.1675 64.1712 70.5444 64.1094 66.9213C64.1812 66.5538 64.1748 66.1754 64.0907 65.8105C64.0066 65.4457 63.8467 65.1027 63.6212 64.8037C61.105 69.575 57.1037 73.3494 54.56 78.1069V78.1138ZM103.579 78.8081V102.266C111.423 102.128 120.12 102.994 126.981 98.4431C132.674 94.7238 132.309 85.2844 126.431 81.9431C119.57 77.8731 111.196 79.0281 103.586 78.8081H103.579ZM103.579 114.888V140.91C113.259 140.126 124.121 141.756 132.543 135.919C138.566 131.924 137.844 122.038 131.636 118.58C123.2 113.541 112.949 115.143 103.586 114.888H103.579ZM103.228 155.622C103.228 161.638 103.214 167.654 103.194 173.683C106.329 173.889 109.464 174.013 112.599 174.096C112.626 167.943 112.612 161.783 112.612 155.622H103.228Z" fill="white"/>
</g>
<defs>
<clipPath id="clip0_108_89">
<rect width="220" height="220" fill="white"/>
</clipPath>
</defs>
</svg>
